# xmcd
#
# Track frame offsets:
#	150
#	12258
#	29077
#	47030
#	64646
#	83628
#	101493
#	118884
#	138368
#	156616
#	172325
#	199598
#
# Disc length: 2968 seconds
#
# Revision: 1
# Processed by: cddbd v1.5.2PL0 Copyright (c) Steve Scherf et al.
# Submitted via: audiograbber 1.83.01
#
DISCID=a90b960c
DTITLE=Macon Greyson - Translate
DYEAR=2005
DGENRE=Roots
TTITLE0=Save Us All
TTITLE1=Sidetracked
TTITLE2=Strung Up
TTITLE3=Own
TTITLE4=Million Hearts
TTITLE5=Wrong Way Around
TTITLE6=Patchwork Alibis
TTITLE7=Blue Side
TTITLE8=My Brain Is Hanging Upside Down
TTITLE9=PCS
TTITLE10=Translate
TTITLE11=Come Inside
EXTD=
EXTT0=
EXTT1=
EXTT2=
EXTT3=
EXTT4=
EXTT5=
EXTT6=
EXTT7=
EXTT8=
EXTT9=
EXTT10=
EXTT11=
PLAYORDER=
